<svg width="20" height="20" viewBox="0 0 9 9" fill="none" xmlns="http://www.w3.org/2000/svg">
<path d="M4.36215 0.422713C4.4238 0.232988 4.69221 0.232988 4.75385 0.422714L5.62139 3.09271C5.64895 3.17756 5.72802 3.235 5.81724 3.235H8.62464C8.82413 3.235 8.90707 3.49028 8.74568 3.60753L6.47444 5.25768C6.40227 5.31012 6.37207 5.40307 6.39964 5.48792L7.26717 8.15791C7.32882 8.34764 7.11167 8.50541 6.95028 8.38815L4.67904 6.738C4.60687 6.68556 4.50913 6.68556 4.43696 6.738L2.16572 8.38815C2.00433 8.50541 1.78719 8.34764 1.84883 8.15791L2.71636 5.48792C2.74393 5.40307 2.71373 5.31012 2.64156 5.25768L0.370323 3.60753C0.208933 3.49028 0.291877 3.235 0.491366 3.235H3.29876C3.38798 3.235 3.46705 3.17756 3.49462 3.09271L4.36215 0.422713Z" fill="#F1CC4A"/>
</svg>
